<?xml version="1.0" encoding="utf-8"?>
<!DOCTYPE svg PUBLIC "-//W3C//DTD SVG 1.1//EN" "http://www.w3.org/Graphics/SVG/1.1/DTD/svg11.dtd">
<svg version="1.1" id="White" xmlns="http://www.w3.org/2000/svg" xmlns:xlink="http://www.w3.org/1999/xlink" x="0px" y="0px"
	 width="20px" height="20px" viewBox="0 0 20 20" enable-background="new 0 0 20 20" xml:space="preserve">
<path id="White_2_" fill="#FFFFFF" d="M18.896,0H1.104C0.494,0,0,0.494,0,1.104v17.792C0,19.506,0.494,20,1.104,20h9.579v-7.745
	H8.076V9.236h2.606V7.011c0-2.583,1.578-3.99,3.882-3.99c1.104,0,2.052,0.083,2.329,0.119v2.7l-1.599,0
	c-1.253,0-1.496,0.596-1.496,1.47v1.927h2.989l-0.389,3.019h-2.6V20h5.096C19.506,20,20,19.506,20,18.896V1.104
	C20,0.494,19.506,0,18.896,0z"/>
</svg>
