<?xml version="1.0" encoding="utf-8"?>
<!DOCTYPE svg PUBLIC "-//W3C//DTD SVG 1.1//EN" "http://www.w3.org/Graphics/SVG/1.1/DTD/svg11.dtd">
<svg version="1.1" id="White" xmlns="http://www.w3.org/2000/svg" xmlns:xlink="http://www.w3.org/1999/xlink" x="0px" y="0px"
	 width="20px" height="20px" viewBox="296 386 20 20" enable-background="new 296 386 20 20" xml:space="preserve">
<path fill="#FFFFFF" d="M313.5,406h-15c-1.38,0-2.5-1.12-2.5-2.5v-15c0-1.38,1.12-2.5,2.5-2.5h15c1.38,0,2.5,1.12,2.5,2.5v15
	C316,404.88,314.88,406,313.5,406z M303.68,401.08c4.714,0,7.294-3.91,7.294-7.295c0-0.11,0-0.22-0.004-0.33
	c0.5-0.36,0.934-0.815,1.279-1.33c-0.46,0.205-0.955,0.34-1.475,0.405c0.529-0.315,0.935-0.82,1.129-1.42
	c-0.494,0.295-1.045,0.505-1.629,0.62c-0.471-0.5-1.135-0.81-1.871-0.81c-1.414,0-2.564,1.15-2.564,2.565
	c0,0.2,0.025,0.395,0.065,0.585c-2.13-0.105-4.02-1.13-5.285-2.68c-0.22,0.38-0.345,0.82-0.345,1.29c0,0.89,0.455,1.675,1.14,2.135
	c-0.42-0.015-0.815-0.13-1.16-0.32c0,0.01,0,0.02,0,0.035c0,1.24,0.885,2.281,2.055,2.515c-0.215,0.061-0.44,0.09-0.675,0.09
	c-0.165,0-0.325-0.015-0.48-0.045c0.325,1.02,1.275,1.76,2.395,1.78c-0.88,0.69-1.985,1.101-3.185,1.101
	c-0.205,0-0.41-0.011-0.61-0.035C300.885,400.654,302.235,401.08,303.68,401.08"/>
</svg>
